<!-- Generator: Adobe Illustrator 23.0.1, SVG Export Plug-In  -->
<svg version="1.1" xmlns="http://www.w3.org/2000/svg" viewBox="0 0 172.92 74.88" xml:space="preserve">
<style type="text/css"> .st0{fill:#D2714E;} .st1{fill:#F39649;} .st2{fill:#FEB96B;} .st3{fill:#C2694B;} .st4{fill:#844742;} .st5{fill:#A84629;} .st6{fill:#DB8D71;} .st7{fill:#CE8F51;} .st8{fill:#FECB91;} .st9{fill:#FFFFFF;} .st10{fill:#F51A3B;} </style>
<defs>
</defs>
<g>
	<g>
		<g>
			<polygon class="st0" points="74.9,56.15 37.45,74.88 37.45,37.45 74.9,18.73 			"/>
		</g>
		<g>
			<polygon class="st1" points="0,56.15 37.45,74.88 37.45,37.45 0,18.73 			"/>
		</g>
		<polygon class="st2" points="37.45,37.45 0,18.73 37.45,0 74.9,18.73 		"/>
		<polygon class="st3" points="58.83,26.76 58.83,34.8 53.53,37.45 53.53,29.41 16.07,10.69 21.37,8.04 		"/>
		<polygon class="st4" points="53.53,29.41 58.83,26.76 58.83,34.8 53.53,37.45 		"/>
		<g>
			<g>

					<ellipse transform="matrix(0.9255 -0.3788 0.3788 0.9255 -18.1136 14.7067)" class="st0" cx="28.32" cy="53.39" rx="6.54" ry="10.92"/>
			</g>
			<g>
				<path class="st5" d="M21.29,50.24c0-5.38,3.28-8.1,7.33-6.08c2.45,1.22,4.61,3.9,5.94,7.02c-1.31-3.33-3.57-6.24-6.15-7.52
					c-4.05-2.02-7.33,0.7-7.33,6.08c0,2.13,0.51,4.35,1.38,6.38C21.72,54.22,21.29,52.19,21.29,50.24z"/>
			</g>
			<path class="st2" d="M29.55,52.4l-3.66,1.94c-0.85,0.45-2.07-0.37-2.73-1.83l0,0c-0.66-1.46-0.5-3.01,0.35-3.46l3.66-1.94
				c0.85-0.45,2.07,0.37,2.73,1.83l0,0C30.56,50.4,30.4,51.95,29.55,52.4z"/>
			<g>

					<ellipse transform="matrix(0.9255 -0.3788 0.3788 0.9255 -17.7101 13.1711)" class="st5" cx="24.62" cy="51.6" rx="1.34" ry="2.24"/>
			</g>
			<g>

					<ellipse transform="matrix(0.9255 -0.3788 0.3788 0.9255 -16.7227 14.4652)" class="st5" cx="28.4" cy="49.74" rx="1.34" ry="2.24"/>
			</g>
			<path class="st2" d="M33.25,58.2l-3.66,1.94c-0.85,0.45-2.07-0.37-2.73-1.83l0,0c-0.66-1.46-0.5-3.01,0.35-3.46l3.66-1.94
				c0.85-0.45,2.07,0.37,2.73,1.83v0C34.26,56.2,34.1,57.75,33.25,58.2z"/>
			<g>

					<ellipse transform="matrix(0.9255 -0.3788 0.3788 0.9255 -19.6312 15.0052)" class="st5" cx="28.32" cy="57.4" rx="1.34" ry="2.24"/>
			</g>
			<g>

					<ellipse transform="matrix(0.9255 -0.3788 0.3788 0.9255 -18.6438 16.2993)" class="st5" cx="32.11" cy="55.54" rx="1.34" ry="2.24"/>
			</g>
			<g>

					<ellipse transform="matrix(0.9255 -0.3788 0.3788 0.9255 -17.6786 13.0733)" class="st0" cx="24.39" cy="51.47" rx="1.34" ry="2.24"/>
			</g>
			<g>

					<ellipse transform="matrix(0.9255 -0.3788 0.3788 0.9255 -16.6912 14.3674)" class="st0" cx="28.17" cy="49.61" rx="1.34" ry="2.24"/>
			</g>
			<g>

					<ellipse transform="matrix(0.9255 -0.3788 0.3788 0.9255 -19.5997 14.9074)" class="st0" cx="28.09" cy="57.27" rx="1.34" ry="2.24"/>
			</g>
			<g>

					<ellipse transform="matrix(0.9255 -0.3788 0.3788 0.9255 -18.6123 16.2015)" class="st0" cx="31.87" cy="55.41" rx="1.34" ry="2.24"/>
			</g>
			<g>
				<path class="st6" d="M23.32,50.92c0-0.83,0.51-1.25,1.13-0.94c0.06,0.03,0.12,0.07,0.17,0.11c-0.12-0.12-0.25-0.21-0.38-0.28
					c-0.63-0.31-1.13,0.11-1.13,0.94c0,0.75,0.42,1.58,0.96,1.96C23.63,52.29,23.32,51.57,23.32,50.92z"/>
			</g>
			<g>
				<path class="st6" d="M27.1,49.06c0-0.83,0.51-1.25,1.13-0.94c0.06,0.03,0.12,0.07,0.17,0.11c-0.12-0.12-0.25-0.21-0.38-0.28
					c-0.63-0.31-1.13,0.11-1.13,0.94c0,0.75,0.42,1.58,0.96,1.96C27.41,50.42,27.1,49.71,27.1,49.06z"/>
			</g>
			<g>
				<path class="st6" d="M27.02,56.72c0-0.83,0.51-1.25,1.13-0.94c0.06,0.03,0.12,0.07,0.17,0.11c-0.12-0.12-0.25-0.21-0.38-0.28
					c-0.63-0.31-1.13,0.11-1.13,0.94c0,0.75,0.42,1.58,0.96,1.96C27.33,58.09,27.02,57.37,27.02,56.72z"/>
			</g>
			<g>
				<path class="st6" d="M30.8,54.86c0-0.83,0.51-1.25,1.13-0.94c0.06,0.03,0.12,0.07,0.17,0.11c-0.12-0.12-0.25-0.21-0.38-0.28
					c-0.63-0.31-1.13,0.11-1.13,0.94c0,0.75,0.42,1.58,0.96,1.96C31.12,56.22,30.8,55.51,30.8,54.86z"/>
			</g>
			<g>
				<g>
					<g>
						<path class="st5" d="M16.12,49.82l-1.71,0.81c-0.23,0.11-0.28,0.52-0.11,0.92l0,0c0.17,0.4,0.5,0.63,0.73,0.52l1.71-0.81
							c0.23-0.11,0.28-0.52,0.11-0.92h0C16.69,49.94,16.36,49.71,16.12,49.82z"/>
					</g>
					<g>
						<path class="st5" d="M19.26,51.39l-1.71,0.81c-0.23,0.11-0.28,0.52-0.11,0.92l0,0c0.17,0.4,0.5,0.63,0.73,0.52l1.71-0.81
							c0.23-0.11,0.28-0.52,0.11-0.92l0,0C19.83,51.51,19.5,51.28,19.26,51.39z"/>
					</g>
				</g>
			</g>
			<g>
				<g>
					<path class="st0" d="M15.81,49.67l-1.71,0.81c-0.23,0.11-0.28,0.52-0.11,0.92h0c0.17,0.4,0.5,0.63,0.73,0.52l1.71-0.81
						c0.23-0.11,0.28-0.52,0.11-0.92v0C16.38,49.79,16.05,49.56,15.81,49.67z"/>
				</g>
				<g>
					<path class="st0" d="M18.95,51.24l-1.71,0.81c-0.23,0.11-0.28,0.52-0.11,0.92l0,0c0.17,0.4,0.5,0.63,0.73,0.52l1.71-0.81
						c0.23-0.11,0.28-0.52,0.11-0.92l0,0C19.52,51.36,19.19,51.13,18.95,51.24z"/>
				</g>
			</g>
			<polygon class="st7" points="20.55,41.18 13.52,37.67 13.52,36.13 20.55,39.64 			"/>
			<g>

					<ellipse transform="matrix(0.9255 -0.3788 0.3788 0.9255 -15.6152 6.0383)" class="st0" cx="7.54" cy="42.71" rx="5.21" ry="8.7"/>
			</g>
			<g>
				<path class="st5" d="M2.12,40.15c0-4.29,2.61-6.46,5.84-4.85c0.45,0.23,0.89,0.52,1.31,0.86c-0.55-0.5-1.13-0.91-1.74-1.22
					C4.31,33.33,1.7,35.5,1.7,39.79c0,3.69,1.93,7.74,4.53,9.82C3.85,47.45,2.12,43.64,2.12,40.15z"/>
			</g>
			<path class="st8" d="M11.81,44.15v-0.29c0-0.5-0.3-1.05-0.68-1.23L8.89,41.5v-0.03c-0.47,0.14-0.8,0.47-1.36,0.47
				C8.92,42.87,10.3,43.52,11.81,44.15z"/>
			<path class="st8" d="M8.88,38.36c-0.05-0.45-0.33-0.91-0.66-1.08l-1.51-0.75c-0.37-0.19-1.09,0.12-1.09,0.62l0.42,0.47
				C6.96,38.19,7.95,38.84,8.88,38.36z"/>
			<path class="st8" d="M6.03,39.74v0.33l-2.25-1.12c-0.37-0.19-1.06-0.05-1.06,0.45l0.38,0.53c1.1,0.32,2.34,0.19,3.36,0.77
				C6.2,40.44,6.24,40.06,6.03,39.74z"/>
			<path class="st7" d="M7.53,41.94c0.56,0,0.9-0.33,1.36-0.47v-2.95c0-0.05-0.01-0.11-0.01-0.16c-0.93,0.48-1.92-0.17-2.85-0.74
				v2.12c0.2,0.32,0.16,0.69,0.43,0.96c-1.01-0.58-2.26-0.45-3.36-0.77v1.58c0,0.5,0.3,1.05,0.68,1.23l2.25,1.12v2.98
				c0,0.5,0.3,1.05,0.68,1.23l1.51,0.75c0.37,0.19,0.68-0.06,0.68-0.56V45.3l2.25,1.12c0.37,0.19,0.68-0.06,0.68-0.56v-1.72
				C10.3,43.52,8.92,42.87,7.53,41.94z"/>
			<g>
				<g>
					<polygon class="st0" points="7.46,37.97 6.56,39.6 8.36,40.49 7.46,37.97 6.56,39.6 8.36,40.49 					"/>
				</g>
				<g>
					<polygon class="st0" points="7.46,47.74 8.36,46.12 6.56,45.22 7.46,47.74 8.36,46.12 6.56,45.22 					"/>
				</g>
				<g>
					<polygon class="st0" points="11.01,44.46 9.45,42.49 9.45,44.88 11.01,44.46 9.45,42.49 9.45,44.88 					"/>
				</g>
				<g>
					<polygon class="st0" points="3.66,40.79 5.22,42.77 5.22,40.37 3.66,40.79 5.22,42.77 5.22,40.37 					"/>
				</g>
				<g>

						<ellipse transform="matrix(0.9255 -0.3788 0.3788 0.9255 -15.6141 6.0072)" class="st0" cx="7.46" cy="42.69" rx="0.72" ry="1.21"/>
				</g>
			</g>
			<path class="st2" d="M10.71,42.8l-2.25-1.12v-2.98c0-0.5-0.3-1.05-0.68-1.23l-1.51-0.75c-0.37-0.19-0.68,0.06-0.68,0.56v2.98
				l-2.25-1.12c-0.37-0.19-0.68,0.06-0.68,0.56v2c0,0.5,0.3,1.05,0.68,1.23l2.25,1.12v2.98c0,0.5,0.3,1.05,0.68,1.23l1.51,0.75
				c0.37,0.19,0.68-0.06,0.68-0.56v-2.98l2.25,1.12c0.37,0.19,0.68-0.06,0.68-0.56v-2C11.39,43.54,11.09,42.98,10.71,42.8z"/>
			<g>
				<g>
					<polygon class="st0" points="7.04,38.15 6.14,39.77 7.94,40.67 7.04,38.15 6.14,39.77 7.94,40.67 					"/>
				</g>
				<g>
					<polygon class="st0" points="7.04,47.92 7.94,46.29 6.14,45.4 7.04,47.92 7.94,46.29 6.14,45.4 					"/>
				</g>
				<g>
					<polygon class="st0" points="10.59,44.63 9.03,42.66 9.03,45.05 10.59,44.63 9.03,42.66 9.03,45.05 					"/>
				</g>
				<g>
					<polygon class="st0" points="3.24,40.96 4.8,42.94 4.8,40.55 3.24,40.96 4.8,42.94 4.8,40.55 					"/>
				</g>
				<g>

						<ellipse transform="matrix(0.9255 -0.3788 0.3788 0.9255 -15.711 5.8601)" class="st0" cx="7.04" cy="42.86" rx="0.72" ry="1.21"/>
				</g>
			</g>
			<g>
				<polygon class="st5" points="7.15,38.44 7.04,38.15 6.14,39.77 6.35,39.87 				"/>
			</g>
			<g>
				<polygon class="st5" points="6.34,45.53 7.92,46.32 7.94,46.29 6.14,45.4 7.04,47.92 7.13,47.75 				"/>
			</g>
			<g>
				<polygon class="st5" points="9.23,42.91 9.03,42.66 9.03,45.05 9.23,45 				"/>
			</g>
			<g>
				<polygon class="st5" points="3.43,41.1 4.8,40.73 4.8,40.55 3.24,40.96 4.8,42.94 4.8,42.82 				"/>
			</g>
			<g>
				<path class="st5" d="M6.43,42.59c0-0.6,0.36-0.9,0.81-0.67c0,0,0,0,0.01,0c-0.07-0.06-0.13-0.1-0.2-0.14
					c-0.45-0.22-0.81,0.08-0.81,0.67c0,0.59,0.36,1.25,0.8,1.48C6.68,43.64,6.43,43.09,6.43,42.59z"/>
			</g>
		</g>
		<polygon class="st4" points="72.98,49.95 71.29,47.61 69.6,45.27 67.91,48.77 66.23,52.28 68.05,51.65 68.05,56.02 71.15,54.95
			71.15,50.58 		"/>
	</g>
	<g>
		<g>
			<path class="st9" d="M81.5,56.43v-12.9h9.71v2.52H84.3v2.62h6.08v2.52H84.3v2.71h7v2.52H81.5z"/>
			<path class="st9" d="M102.82,54.32c-0.23,0.5-0.56,0.92-0.97,1.25c-0.42,0.34-0.91,0.6-1.49,0.77c-0.58,0.18-1.21,0.27-1.91,0.27
				c-0.98,0-1.95-0.17-2.89-0.51c-0.95-0.34-1.81-0.86-2.58-1.56l1.68-2.01c0.59,0.48,1.19,0.86,1.82,1.14
				c0.62,0.28,1.3,0.42,2.04,0.42c0.59,0,1.05-0.11,1.37-0.32c0.33-0.21,0.49-0.51,0.49-0.89v-0.04c0-0.18-0.03-0.35-0.1-0.49
				c-0.07-0.14-0.2-0.27-0.39-0.4c-0.19-0.12-0.46-0.25-0.79-0.37c-0.34-0.12-0.78-0.25-1.32-0.39c-0.65-0.16-1.24-0.34-1.77-0.53
				c-0.53-0.2-0.98-0.44-1.35-0.73c-0.37-0.29-0.66-0.65-0.86-1.08c-0.2-0.43-0.3-0.96-0.3-1.6v-0.04c0-0.59,0.11-1.12,0.33-1.59
				c0.22-0.47,0.53-0.88,0.92-1.23c0.4-0.34,0.87-0.61,1.42-0.79c0.55-0.18,1.16-0.28,1.82-0.28c0.95,0,1.82,0.14,2.61,0.42
				c0.79,0.28,1.52,0.69,2.18,1.22l-1.47,2.14c-0.58-0.39-1.14-0.7-1.7-0.93c-0.55-0.23-1.11-0.34-1.66-0.34
				c-0.55,0-0.97,0.11-1.24,0.32c-0.28,0.22-0.41,0.48-0.41,0.8v0.04c0,0.21,0.04,0.39,0.12,0.54c0.08,0.15,0.22,0.29,0.43,0.41
				c0.21,0.12,0.5,0.24,0.86,0.35c0.36,0.11,0.82,0.24,1.38,0.39c0.65,0.17,1.23,0.37,1.75,0.58c0.51,0.22,0.94,0.47,1.29,0.77
				c0.35,0.3,0.62,0.65,0.79,1.06c0.18,0.41,0.27,0.89,0.27,1.46v0.04C103.17,53.26,103.05,53.82,102.82,54.32z"/>
			<path class="st9" d="M111.48,46.15v10.28h-2.84V46.15h-3.93v-2.62h10.69v2.62H111.48z"/>
			<path class="st9" d="M130.2,52.57c-0.34,0.8-0.82,1.51-1.43,2.12c-0.61,0.61-1.33,1.09-2.17,1.44c-0.84,0.35-1.76,0.53-2.76,0.53
				c-1,0-1.91-0.18-2.75-0.53c-0.84-0.35-1.56-0.82-2.17-1.42c-0.61-0.6-1.08-1.3-1.42-2.1c-0.34-0.8-0.51-1.67-0.51-2.59v-0.04
				c0-0.92,0.17-1.78,0.52-2.59c0.34-0.8,0.82-1.51,1.43-2.12c0.61-0.61,1.33-1.09,2.17-1.44c0.84-0.35,1.76-0.53,2.76-0.53
				c1,0,1.91,0.18,2.75,0.53c0.84,0.35,1.56,0.82,2.17,1.42c0.61,0.6,1.08,1.3,1.42,2.1c0.34,0.8,0.51,1.67,0.51,2.59v0.04
				C130.72,50.9,130.55,51.77,130.2,52.57z M127.75,49.98c0-0.55-0.1-1.07-0.29-1.57c-0.19-0.49-0.46-0.92-0.81-1.29
				c-0.35-0.37-0.76-0.66-1.24-0.88c-0.48-0.21-1-0.32-1.57-0.32c-0.58,0-1.1,0.1-1.58,0.31c-0.47,0.21-0.88,0.5-1.22,0.87
				c-0.34,0.37-0.6,0.8-0.79,1.28c-0.19,0.49-0.29,1-0.29,1.56v0.04c0,0.55,0.09,1.08,0.29,1.57c0.19,0.49,0.46,0.92,0.81,1.29
				c0.35,0.37,0.76,0.66,1.23,0.88c0.47,0.22,1,0.32,1.58,0.32c0.57,0,1.09-0.1,1.57-0.31c0.48-0.21,0.89-0.5,1.23-0.87
				c0.34-0.37,0.6-0.8,0.79-1.28c0.19-0.49,0.29-1,0.29-1.56V49.98z"/>
			<path class="st9" d="M144.76,56.82l-1.42-1.27c-0.55,0.36-1.15,0.63-1.79,0.82c-0.64,0.19-1.32,0.29-2.05,0.29
				c-1,0-1.91-0.18-2.75-0.53c-0.84-0.35-1.56-0.82-2.17-1.42c-0.61-0.6-1.08-1.3-1.42-2.1c-0.34-0.8-0.51-1.67-0.51-2.59v-0.04
				c0-0.92,0.17-1.78,0.52-2.59c0.34-0.8,0.82-1.51,1.43-2.12c0.61-0.61,1.33-1.09,2.17-1.44c0.84-0.35,1.76-0.53,2.76-0.53
				c1,0,1.91,0.18,2.75,0.53c0.84,0.35,1.56,0.82,2.17,1.42c0.61,0.6,1.08,1.3,1.42,2.1c0.34,0.8,0.51,1.67,0.51,2.59v0.04
				c0,0.68-0.1,1.33-0.29,1.95c-0.2,0.63-0.48,1.21-0.85,1.75l1.33,1.12L144.76,56.82z M143.41,49.98c0-0.55-0.1-1.07-0.29-1.57
				c-0.19-0.49-0.46-0.92-0.81-1.29c-0.35-0.37-0.76-0.66-1.24-0.88c-0.48-0.21-1-0.32-1.57-0.32c-0.58,0-1.1,0.1-1.58,0.31
				c-0.47,0.21-0.88,0.5-1.22,0.87c-0.34,0.37-0.6,0.8-0.79,1.28c-0.19,0.49-0.29,1-0.29,1.56v0.04c0,0.55,0.09,1.08,0.29,1.57
				c0.19,0.49,0.46,0.92,0.81,1.29c0.35,0.37,0.76,0.66,1.23,0.88c0.47,0.22,1,0.32,1.58,0.32c0.6,0,1.17-0.12,1.7-0.35l-2.1-1.79
				l1.81-2.03l2.12,1.92c0.23-0.52,0.35-1.11,0.35-1.77V49.98z"/>
			<path class="st9" d="M159.55,53.37c-0.26,0.73-0.64,1.33-1.13,1.82c-0.49,0.49-1.09,0.85-1.79,1.09
				c-0.7,0.24-1.48,0.36-2.34,0.36c-1.73,0-3.1-0.48-4.09-1.44c-1-0.96-1.49-2.39-1.49-4.29v-7.37l1.48,1.64l1.36-1.64v7.3
				c0,1.06,0.25,1.85,0.74,2.39c0.49,0.53,1.17,0.8,2.05,0.8c0.87,0,1.55-0.26,2.05-0.77c0.49-0.52,0.74-1.29,0.74-2.32v-4.99h2.84
				v4.88C159.94,51.79,159.81,52.65,159.55,53.37z"/>
			<path class="st9" d="M162.84,56.43v-12.9h9.71v2.52h-6.91v2.62h6.08v2.52h-6.08v2.71h7v2.52H162.84z"/>
		</g>
		<g>
			<path class="st9" d="M90.11,29.68c-0.31,0.24-0.64,0.45-1.01,0.63c-0.36,0.17-0.76,0.31-1.2,0.4c-0.43,0.09-0.92,0.13-1.46,0.13
				c-0.81,0-1.57-0.15-2.27-0.44c-0.7-0.3-1.3-0.7-1.81-1.21c-0.51-0.51-0.9-1.12-1.19-1.82c-0.29-0.7-0.43-1.44-0.43-2.24v-0.03
				c0-0.79,0.14-1.54,0.43-2.23c0.29-0.69,0.68-1.3,1.19-1.82c0.51-0.52,1.12-0.94,1.82-1.24c0.71-0.3,1.49-0.45,2.35-0.45
				c0.52,0,0.99,0.04,1.42,0.13c0.43,0.08,0.82,0.2,1.17,0.35c0.35,0.15,0.67,0.33,0.97,0.54c0.3,0.21,0.57,0.44,0.83,0.7
				l-1.56,1.79c-0.43-0.39-0.88-0.7-1.33-0.92c-0.45-0.22-0.95-0.33-1.52-0.33c-0.47,0-0.9,0.09-1.29,0.27
				c-0.4,0.18-0.74,0.43-1.02,0.75c-0.29,0.32-0.51,0.69-0.67,1.1c-0.16,0.42-0.24,0.86-0.24,1.34v0.03c0,0.48,0.08,0.93,0.24,1.35
				c0.16,0.42,0.38,0.79,0.66,1.11c0.28,0.32,0.62,0.57,1.02,0.75c0.4,0.19,0.83,0.28,1.31,0.28c0.63,0,1.17-0.12,1.61-0.35
				c0.44-0.23,0.88-0.55,1.31-0.95L91,28.85C90.71,29.16,90.41,29.43,90.11,29.68z"/>
			<path class="st9" d="M103.82,27.32c-0.3,0.69-0.71,1.3-1.23,1.82c-0.52,0.52-1.15,0.94-1.87,1.24c-0.72,0.3-1.52,0.45-2.37,0.45
				c-0.86,0-1.65-0.15-2.36-0.45c-0.72-0.3-1.34-0.71-1.86-1.22c-0.52-0.51-0.93-1.12-1.22-1.81c-0.29-0.69-0.44-1.44-0.44-2.23
				v-0.03c0-0.79,0.15-1.54,0.44-2.23c0.3-0.69,0.71-1.3,1.23-1.82c0.52-0.52,1.15-0.94,1.87-1.24c0.72-0.3,1.52-0.45,2.37-0.45
				c0.86,0,1.64,0.15,2.36,0.45c0.72,0.3,1.34,0.71,1.86,1.22c0.52,0.51,0.93,1.12,1.22,1.81c0.29,0.69,0.44,1.44,0.44,2.23v0.03
				C104.26,25.88,104.11,26.63,103.82,27.32z M101.71,25.09c0-0.48-0.08-0.93-0.25-1.35c-0.16-0.42-0.4-0.79-0.7-1.11
				c-0.3-0.32-0.66-0.57-1.07-0.75c-0.41-0.18-0.86-0.28-1.35-0.28c-0.5,0-0.95,0.09-1.36,0.27c-0.41,0.18-0.76,0.43-1.05,0.75
				c-0.29,0.32-0.52,0.69-0.68,1.1c-0.16,0.42-0.25,0.86-0.25,1.34v0.03c0,0.48,0.08,0.93,0.25,1.35c0.16,0.42,0.4,0.79,0.7,1.11
				c0.3,0.32,0.66,0.57,1.06,0.75c0.41,0.19,0.86,0.28,1.36,0.28c0.49,0,0.94-0.09,1.35-0.27c0.41-0.18,0.76-0.43,1.06-0.75
				c0.29-0.32,0.52-0.68,0.68-1.1c0.16-0.42,0.25-0.86,0.25-1.34V25.09z"/>
			<path class="st9" d="M114.23,30.65l-5.38-7.06v7.06h-2.41V19.54h2.25l5.2,6.84v-6.84h2.41v11.11H114.23z"/>
			<path class="st9" d="M124,21.79v8.85h-2.44v-8.85h-3.38v-2.25h9.2v2.25H124z"/>
			<path class="st9" d="M136,30.65l-2.38-3.55h-1.92v3.55h-2.44V19.54h5.08c1.32,0,2.35,0.32,3.09,0.97c0.74,0.65,1.1,1.54,1.1,2.7
				v0.03c0,0.9-0.22,1.63-0.66,2.2c-0.44,0.57-1.01,0.98-1.72,1.25l2.71,3.97H136z M136.05,23.33c0-0.53-0.17-0.93-0.51-1.19
				c-0.34-0.26-0.81-0.4-1.41-0.4h-2.43v3.19h2.48c0.6,0,1.07-0.14,1.39-0.43c0.32-0.29,0.48-0.67,0.48-1.14V23.33z"/>
			<path class="st9" d="M151.6,27.32c-0.3,0.69-0.71,1.3-1.23,1.82c-0.52,0.52-1.15,0.94-1.87,1.24c-0.72,0.3-1.52,0.45-2.37,0.45
				c-0.86,0-1.65-0.15-2.36-0.45c-0.72-0.3-1.34-0.71-1.86-1.22c-0.52-0.51-0.93-1.12-1.22-1.81c-0.29-0.69-0.44-1.44-0.44-2.23
				v-0.03c0-0.79,0.15-1.54,0.44-2.23c0.3-0.69,0.71-1.3,1.23-1.82c0.52-0.52,1.15-0.94,1.87-1.24c0.72-0.3,1.52-0.45,2.37-0.45
				c0.86,0,1.64,0.15,2.36,0.45c0.72,0.3,1.34,0.71,1.86,1.22c0.52,0.51,0.93,1.12,1.22,1.81c0.29,0.69,0.44,1.44,0.44,2.23v0.03
				C152.04,25.88,151.89,26.63,151.6,27.32z M149.49,25.09c0-0.48-0.08-0.93-0.25-1.35c-0.16-0.42-0.4-0.79-0.7-1.11
				c-0.3-0.32-0.66-0.57-1.07-0.75c-0.41-0.18-0.86-0.28-1.35-0.28c-0.5,0-0.95,0.09-1.36,0.27c-0.41,0.18-0.76,0.43-1.05,0.75
				c-0.29,0.32-0.52,0.69-0.68,1.1c-0.16,0.42-0.25,0.86-0.25,1.34v0.03c0,0.48,0.08,0.93,0.25,1.35c0.16,0.42,0.4,0.79,0.7,1.11
				c0.3,0.32,0.66,0.57,1.06,0.75c0.41,0.19,0.86,0.28,1.36,0.28c0.49,0,0.94-0.09,1.35-0.27c0.41-0.18,0.76-0.43,1.06-0.75
				c0.29-0.32,0.52-0.68,0.68-1.1c0.16-0.42,0.25-0.86,0.25-1.34V25.09z"/>
			<path class="st9" d="M154.22,30.65V19.54h2.44v8.9h5.54v2.21H154.22z"/>
			<path class="st9" d="M164.04,30.65V19.54h8.36v2.17h-5.95v2.25h5.24v2.17h-5.24v2.33h6.03v2.17H164.04z"/>
		</g>
		<g>
			<polygon class="st10" points="169.9,35.05 172.92,34.09 136.47,34.09 136.47,40.01 172.92,40.01 169.9,39.21 172.92,38.44
				169.39,37.28 172.92,36.51 			"/>
			<polygon class="st10" points="116.78,40.01 116.78,34.09 80.32,34.09 83.7,35.06 80.32,35.68 82.57,36.77 80.32,38.2
				82.86,39.02 80.32,40.01 			"/>
		</g>
		<g>
			<path class="st9" d="M126.21,38.42c-0.19,0.46-0.46,0.85-0.81,1.19c-0.35,0.33-0.77,0.6-1.26,0.79c-0.49,0.19-1.02,0.29-1.6,0.29
				h-2.59v-7.45h2.59c0.58,0,1.12,0.09,1.6,0.28c0.49,0.19,0.9,0.45,1.26,0.78c0.35,0.33,0.62,0.73,0.81,1.18
				c0.19,0.45,0.29,0.94,0.29,1.47C126.49,37.47,126.4,37.96,126.21,38.42z M125.4,35.8c-0.15-0.36-0.35-0.68-0.62-0.94
				c-0.27-0.27-0.59-0.48-0.97-0.63c-0.38-0.15-0.81-0.23-1.28-0.23h-1.75v5.9h1.75c0.47,0,0.89-0.07,1.28-0.22
				c0.38-0.15,0.71-0.36,0.97-0.62c0.27-0.27,0.47-0.58,0.62-0.93c0.15-0.35,0.22-0.74,0.22-1.16
				C125.62,36.55,125.55,36.17,125.4,35.8z"/>
			<path class="st9" d="M133.66,33.99h-4.54v2.54h4.07v0.77h-4.07v2.61h4.6v0.77h-5.44v-7.45h5.38V33.99z"/>
		</g>
	</g>
	<polygon class="st9" points="158.43,42.88 155.79,47.46 161.08,47.46 158.43,42.88 155.79,47.46 161.08,47.46 	"/>
</g>
</svg>
