<svg version="1.1" xmlns="http://www.w3.org/2000/svg" xmlns:xlink="http://www.w3.org/1999/xlink" viewBox="0 0 422.98 183.17" xml:space="preserve">
<style type="text/css"> .st0{fill:#D2714E;} .st1{fill:#F39649;} .st2{fill:#FEB96B;} .st3{fill:#C2694B;} .st4{fill:#844742;} .st5{fill:#A84629;} .st6{fill:#DB8D71;} .st7{fill:#CE8F51;} .st8{fill:#FECB91;} .st9{fill:#F51A3B;}</style>
<defs>
</defs>
<g>
	<g>
		<g>
			<polygon class="st0" points="183.22,137.36 91.61,183.17 91.61,91.61 183.22,45.81 			"/>
		</g>
		<g>
			<polygon class="st1" points="0,137.36 91.61,183.17 91.61,91.61 0,45.81 			"/>
		</g>
		<polygon class="st2" points="91.61,91.61 0,45.81 91.61,0 183.22,45.81 		"/>
		<polygon class="st3" points="143.9,65.47 143.9,85.13 130.93,91.61 130.93,71.95 39.32,26.15 52.28,19.66 		"/>
		<polygon class="st4" points="130.93,71.95 143.9,65.47 143.9,85.13 130.93,91.61 		"/>
		<g>
			<g>

					<ellipse transform="matrix(0.9255 -0.3788 0.3788 0.9255 -44.3085 35.9748)" class="st0" cx="69.28" cy="130.61" rx="15.99" ry="26.71"/>
			</g>
			<g>
				<path class="st5" d="M52.07,122.9c0-13.16,8.02-19.81,17.92-14.87c5.99,2.99,11.29,9.54,14.54,17.16
					c-3.19-8.15-8.74-15.25-15.05-18.41c-9.9-4.94-17.92,1.72-17.92,14.87c0,5.2,1.26,10.63,3.38,15.61
					C53.13,132.63,52.07,127.67,52.07,122.9z"/>
			</g>
			<path class="st2" d="M72.29,128.18l-8.96,4.74c-2.08,1.1-5.07-0.9-6.68-4.47l0,0c-1.61-3.57-1.23-7.35,0.85-8.45l8.96-4.74
				c2.08-1.1,5.07,0.9,6.68,4.47l0,0C74.75,123.29,74.37,127.08,72.29,128.18z"/>
			<g>

					<ellipse transform="matrix(0.9255 -0.3788 0.3788 0.9255 -43.3215 32.2185)" class="st5" cx="60.23" cy="126.22" rx="3.28" ry="5.48"/>
			</g>
			<g>

					<ellipse transform="matrix(0.9255 -0.3788 0.3788 0.9255 -40.9062 35.384)" class="st5" cx="69.48" cy="121.66" rx="3.28" ry="5.48"/>
			</g>
			<path class="st2" d="M81.34,142.37l-8.96,4.74c-2.08,1.1-5.07-0.9-6.68-4.47v0c-1.61-3.57-1.23-7.35,0.85-8.45l8.96-4.74
				c2.08-1.1,5.07,0.9,6.68,4.47v0C83.8,137.48,83.42,141.27,81.34,142.37z"/>
			<g>

					<ellipse transform="matrix(0.9255 -0.3788 0.3788 0.9255 -48.0208 36.705)" class="st5" cx="69.28" cy="140.41" rx="3.28" ry="5.48"/>
			</g>
			<g>

					<ellipse transform="matrix(0.9255 -0.3788 0.3788 0.9255 -45.6055 39.8706)" class="st5" cx="78.54" cy="135.85" rx="3.28" ry="5.48"/>
			</g>
			<g>

					<ellipse transform="matrix(0.9255 -0.3788 0.3788 0.9255 -43.2445 31.9792)" class="st0" cx="59.66" cy="125.9" rx="3.28" ry="5.48"/>
			</g>
			<g>

					<ellipse transform="matrix(0.9255 -0.3788 0.3788 0.9255 -40.8292 35.1447)" class="st0" cx="68.91" cy="121.35" rx="3.28" ry="5.48"/>
			</g>
			<g>

					<ellipse transform="matrix(0.9255 -0.3788 0.3788 0.9255 -47.9438 36.4658)" class="st0" cx="68.71" cy="140.09" rx="3.28" ry="5.48"/>
			</g>
			<g>

					<ellipse transform="matrix(0.9255 -0.3788 0.3788 0.9255 -45.5285 39.6313)" class="st0" cx="77.97" cy="135.54" rx="3.28" ry="5.48"/>
			</g>
			<g>
				<path class="st6" d="M57.04,124.56c0-2.03,1.24-3.06,2.77-2.3c0.14,0.07,0.28,0.16,0.42,0.26c-0.29-0.28-0.6-0.52-0.93-0.68
					c-1.53-0.76-2.77,0.27-2.77,2.3c0,1.84,1.02,3.87,2.35,4.81C57.81,127.9,57.04,126.16,57.04,124.56z"/>
			</g>
			<g>
				<path class="st6" d="M66.29,120c0-2.03,1.24-3.06,2.77-2.3c0.14,0.07,0.28,0.16,0.42,0.26c-0.29-0.28-0.6-0.52-0.93-0.68
					c-1.53-0.76-2.77,0.27-2.77,2.3c0,1.84,1.02,3.87,2.35,4.81C67.06,123.34,66.29,121.6,66.29,120z"/>
			</g>
			<g>
				<path class="st6" d="M66.09,138.74c0-2.03,1.24-3.06,2.77-2.3c0.14,0.07,0.28,0.16,0.42,0.26c-0.29-0.28-0.6-0.52-0.93-0.68
					c-1.53-0.76-2.77,0.27-2.77,2.3c0,1.84,1.02,3.87,2.35,4.81C66.86,142.09,66.09,140.34,66.09,138.74z"/>
			</g>
			<g>
				<path class="st6" d="M75.34,134.19c0-2.03,1.24-3.06,2.77-2.3c0.14,0.07,0.28,0.16,0.42,0.26c-0.29-0.28-0.6-0.52-0.93-0.68
					c-1.53-0.76-2.77,0.26-2.77,2.3c0,1.84,1.02,3.87,2.35,4.81C76.11,137.53,75.34,135.79,75.34,134.19z"/>
			</g>
			<g>
				<g>
					<g>
						<path class="st5" d="M39.44,121.88l-4.18,1.99c-0.57,0.27-0.69,1.28-0.28,2.25h0c0.42,0.97,1.22,1.53,1.79,1.26l4.18-1.99
							c0.57-0.27,0.69-1.28,0.28-2.25v0C40.82,122.17,40.01,121.61,39.44,121.88z"/>
					</g>
					<g>
						<path class="st5" d="M47.12,125.71l-4.18,1.99c-0.57,0.27-0.69,1.28-0.28,2.25h0c0.42,0.97,1.22,1.53,1.79,1.26l4.18-1.99
							c0.57-0.27,0.69-1.28,0.28-2.25l0,0C48.5,126.01,47.69,125.44,47.12,125.71z"/>
					</g>
				</g>
			</g>
			<g>
				<g>
					<path class="st0" d="M38.69,121.5l-4.18,1.99c-0.57,0.27-0.69,1.28-0.28,2.25v0c0.42,0.97,1.22,1.53,1.79,1.26l4.18-1.99
						c0.57-0.27,0.69-1.28,0.28-2.25l0,0C40.06,121.79,39.26,121.23,38.69,121.5z"/>
				</g>
				<g>
					<path class="st0" d="M46.37,125.33l-4.18,1.99c-0.57,0.27-0.69,1.28-0.28,2.25v0c0.42,0.97,1.22,1.53,1.79,1.26l4.18-1.99
						c0.57-0.27,0.69-1.28,0.28-2.25l0,0C47.74,125.63,46.94,125.06,46.37,125.33z"/>
				</g>
			</g>
			<polygon class="st7" points="50.26,100.73 33.08,92.14 33.08,88.39 50.26,96.97 			"/>
			<g>

					<ellipse transform="matrix(0.9255 -0.3788 0.3788 0.9255 -38.1971 14.7706)" class="st0" cx="18.44" cy="104.47" rx="12.74" ry="21.29"/>
			</g>
			<g>
				<path class="st5" d="M5.19,98.22c0-10.49,6.4-15.79,14.29-11.85c1.11,0.55,2.18,1.26,3.21,2.09c-1.34-1.23-2.77-2.24-4.25-2.98
					c-7.89-3.94-14.29,1.37-14.29,11.85c0,9.02,4.73,18.92,11.07,24.03C9.42,116.06,5.19,106.74,5.19,98.22z"/>
			</g>
			<path class="st8" d="M28.89,107.99v-0.7c0-1.21-0.74-2.56-1.65-3.02l-5.49-2.74v-0.08c-1.14,0.34-1.97,1.15-3.34,1.15
				C21.81,104.86,25.21,106.47,28.89,107.99z"/>
			<path class="st8" d="M21.72,93.84c-0.13-1.1-0.81-2.22-1.62-2.63l-3.69-1.84c-0.91-0.46-2.67,0.3-2.67,1.52l1.02,1.14
				C17.01,93.42,19.44,95.01,21.72,93.84z"/>
			<path class="st8" d="M14.76,97.22v0.82l-5.49-2.74c-0.91-0.46-2.59-0.11-2.59,1.1l0.94,1.3c2.68,0.78,5.73,0.46,8.21,1.88
				C15.16,98.91,15.25,98,14.76,97.22z"/>
			<path class="st7" d="M18.41,102.6c1.37,0,2.19-0.81,3.34-1.15v-7.22c0-0.13-0.01-0.26-0.03-0.39c-2.27,1.18-4.7-0.41-6.96-1.81
				v5.19c0.5,0.78,0.4,1.69,1.06,2.35c-2.47-1.41-5.52-1.09-8.21-1.88v3.87c0,1.21,0.74,2.56,1.65,3.02l5.49,2.74v7.3
				c0,1.21,0.74,2.56,1.65,3.02l3.69,1.84c0.91,0.46,1.65-0.16,1.65-1.37v-7.3l5.49,2.74c0.91,0.46,1.65-0.16,1.65-1.37v-4.2
				C25.21,106.47,21.81,104.86,18.41,102.6z"/>
			<g>
				<g>
					<polygon class="st0" points="18.25,92.89 16.05,96.86 20.45,99.06 18.25,92.89 16.05,96.86 20.45,99.06 					"/>
				</g>
				<g>
					<polygon class="st0" points="18.25,116.79 20.45,112.82 16.05,110.62 18.25,116.79 20.45,112.82 16.05,110.62 					"/>
				</g>
				<g>
					<polygon class="st0" points="26.93,108.76 23.12,103.93 23.12,109.78 26.93,108.76 23.12,103.93 23.12,109.78 					"/>
				</g>
				<g>
					<polygon class="st0" points="8.95,99.78 12.76,104.61 12.76,98.76 8.95,99.78 12.76,104.61 12.76,98.76 					"/>
				</g>
				<g>

						<ellipse transform="matrix(0.9255 -0.3788 0.3788 0.9255 -38.1944 14.6945)" class="st0" cx="18.25" cy="104.43" rx="1.77" ry="2.96"/>
				</g>
			</g>
			<path class="st2" d="M26.21,104.69l-5.49-2.74v-7.3c0-1.21-0.74-2.56-1.65-3.02l-3.69-1.84c-0.91-0.46-1.65,0.16-1.65,1.37v7.3
				l-5.49-2.74c-0.91-0.46-1.65,0.16-1.65,1.37v4.9c0,1.21,0.74,2.56,1.65,3.02l5.49,2.74v7.3c0,1.21,0.74,2.56,1.65,3.02l3.69,1.84
				c0.91,0.46,1.65-0.16,1.65-1.37v-7.3l5.49,2.74c0.91,0.46,1.65-0.16,1.65-1.37v-4.9C27.86,106.5,27.12,105.15,26.21,104.69z"/>
			<g>
				<g>
					<polygon class="st0" points="17.22,93.31 15.02,97.28 19.42,99.48 17.22,93.31 15.02,97.28 19.42,99.48 					"/>
				</g>
				<g>
					<polygon class="st0" points="17.22,117.21 19.42,113.24 15.02,111.04 17.22,117.21 19.42,113.24 15.02,111.04 					"/>
				</g>
				<g>
					<polygon class="st0" points="25.9,109.18 22.09,104.35 22.09,110.21 25.9,109.18 22.09,104.35 22.09,110.21 					"/>
				</g>
				<g>
					<polygon class="st0" points="7.92,100.2 11.73,105.03 11.73,99.18 7.92,100.2 11.73,105.03 11.73,99.18 					"/>
				</g>
				<g>

						<ellipse transform="matrix(0.9255 -0.3788 0.3788 0.9255 -38.4315 14.3347)" class="st0" cx="17.22" cy="104.85" rx="1.77" ry="2.96"/>
				</g>
			</g>
			<g>
				<polygon class="st5" points="17.48,94.04 17.22,93.31 15.02,97.28 15.54,97.54 				"/>
			</g>
			<g>
				<polygon class="st5" points="15.5,111.37 19.38,113.31 19.42,113.24 15.02,111.04 17.22,117.21 17.44,116.81 				"/>
			</g>
			<g>
				<polygon class="st5" points="22.57,104.97 22.09,104.35 22.09,110.21 22.57,110.08 				"/>
			</g>
			<g>
				<polygon class="st5" points="8.4,100.53 11.73,99.64 11.73,99.18 7.92,100.2 11.73,105.03 11.73,104.75 				"/>
			</g>
			<g>
				<path class="st5" d="M15.72,104.19c0-1.46,0.89-2.19,1.98-1.65c0.01,0,0.01,0.01,0.02,0.01c-0.16-0.14-0.33-0.25-0.5-0.34
					c-1.1-0.55-1.98,0.19-1.98,1.65c0,1.45,0.88,3.06,1.97,3.62C16.35,106.76,15.72,105.41,15.72,104.19z"/>
			</g>
		</g>
		<polygon class="st4" points="178.51,122.19 174.38,116.46 170.25,110.73 166.13,119.3 162,127.87 166.46,126.34 166.46,137.02
			174.05,134.41 174.05,123.73 		"/>
	</g>
	<g>
		<g>
			<path class="st4" d="M199.35,138.04v-31.55h23.76v6.18h-16.9v6.4h14.88v6.18H206.2v6.63h17.13v6.18H199.35z"/>
			<path class="st4" d="M251.51,132.88c-0.57,1.22-1.36,2.24-2.37,3.07c-1.02,0.83-2.23,1.46-3.63,1.89
				c-1.41,0.44-2.97,0.65-4.68,0.65c-2.4,0-4.76-0.41-7.08-1.24c-2.31-0.83-4.42-2.1-6.31-3.81l4.1-4.91
				c1.44,1.17,2.92,2.1,4.44,2.79c1.52,0.69,3.18,1.04,4.98,1.04c1.44,0,2.56-0.26,3.36-0.79c0.8-0.53,1.19-1.25,1.19-2.19v-0.09
				c0-0.45-0.08-0.85-0.25-1.19c-0.17-0.35-0.48-0.67-0.95-0.97c-0.47-0.3-1.12-0.6-1.94-0.9c-0.83-0.3-1.91-0.62-3.23-0.95
				c-1.6-0.39-3.04-0.83-4.34-1.31c-1.3-0.48-2.4-1.07-3.3-1.78c-0.9-0.71-1.6-1.59-2.1-2.64c-0.5-1.05-0.75-2.36-0.75-3.92v-0.09
				c0-1.44,0.27-2.74,0.81-3.9c0.54-1.16,1.29-2.16,2.26-3c0.97-0.84,2.13-1.49,3.48-1.94c1.35-0.45,2.83-0.68,4.45-0.68
				c2.31,0,4.44,0.35,6.38,1.04c1.94,0.69,3.72,1.68,5.34,2.98l-3.61,5.23c-1.41-0.96-2.79-1.72-4.15-2.28
				c-1.35-0.56-2.7-0.83-4.06-0.83c-1.35,0-2.37,0.26-3.04,0.79c-0.68,0.53-1.01,1.18-1.01,1.96V115c0,0.51,0.1,0.95,0.29,1.33
				c0.2,0.38,0.55,0.71,1.06,1.01c0.51,0.3,1.21,0.59,2.1,0.86c0.89,0.27,2.01,0.59,3.37,0.95c1.6,0.42,3.02,0.89,4.27,1.42
				c1.25,0.53,2.3,1.16,3.16,1.89c0.86,0.74,1.51,1.6,1.94,2.59c0.44,0.99,0.66,2.18,0.66,3.56v0.09
				C252.36,130.27,252.08,131.66,251.51,132.88z"/>
			<path class="st4" d="M272.69,112.89v25.15h-6.94v-25.15h-9.6v-6.4h26.15v6.4H272.69z"/>
			<path class="st4" d="M318.49,128.6c-0.84,1.97-2.01,3.7-3.49,5.18c-1.49,1.49-3.26,2.66-5.32,3.52c-2.06,0.86-4.3,1.28-6.74,1.28
				c-2.43,0-4.67-0.43-6.72-1.28c-2.04-0.86-3.81-2.01-5.3-3.47c-1.49-1.46-2.65-3.17-3.47-5.14c-0.83-1.97-1.24-4.08-1.24-6.33
				v-0.09c0-2.25,0.42-4.36,1.26-6.33c0.84-1.97,2.01-3.7,3.49-5.18c1.49-1.49,3.26-2.66,5.32-3.52c2.06-0.86,4.3-1.28,6.74-1.28
				c2.43,0,4.67,0.43,6.72,1.28c2.04,0.86,3.81,2.01,5.3,3.47c1.49,1.46,2.64,3.17,3.47,5.14c0.83,1.97,1.24,4.08,1.24,6.33v0.09
				C319.75,124.52,319.33,126.63,318.49,128.6z M312.5,122.26c0-1.35-0.23-2.63-0.7-3.83c-0.47-1.2-1.13-2.25-1.98-3.16
				c-0.86-0.9-1.87-1.61-3.04-2.14c-1.17-0.53-2.45-0.79-3.83-0.79c-1.41,0-2.7,0.26-3.85,0.77c-1.16,0.51-2.15,1.22-2.97,2.12
				c-0.83,0.9-1.47,1.95-1.94,3.13c-0.47,1.19-0.7,2.46-0.7,3.81v0.09c0,1.35,0.23,2.63,0.7,3.83c0.47,1.2,1.13,2.25,1.98,3.16
				c0.86,0.9,1.86,1.62,3.02,2.14c1.16,0.53,2.44,0.79,3.85,0.79c1.38,0,2.66-0.26,3.83-0.77c1.17-0.51,2.17-1.22,3-2.12
				c0.83-0.9,1.47-1.95,1.94-3.13c0.47-1.19,0.7-2.46,0.7-3.81V122.26z"/>
			<path class="st4" d="M354.1,138.99l-3.47-3.11c-1.35,0.87-2.81,1.54-4.37,2.01c-1.56,0.47-3.23,0.7-5,0.7
				c-2.43,0-4.67-0.43-6.72-1.28c-2.04-0.86-3.81-2.01-5.3-3.47c-1.49-1.46-2.65-3.17-3.47-5.14c-0.83-1.97-1.24-4.08-1.24-6.33
				v-0.09c0-2.25,0.42-4.36,1.26-6.33c0.84-1.97,2.01-3.7,3.49-5.18c1.49-1.49,3.26-2.66,5.32-3.52c2.06-0.86,4.3-1.28,6.74-1.28
				c2.43,0,4.67,0.43,6.72,1.28c2.04,0.86,3.81,2.01,5.3,3.47c1.49,1.46,2.64,3.17,3.47,5.14c0.83,1.97,1.24,4.08,1.24,6.33v0.09
				c0,1.65-0.24,3.25-0.72,4.78c-0.48,1.53-1.17,2.96-2.07,4.28l3.25,2.75L354.1,138.99z M350.81,122.26c0-1.35-0.23-2.63-0.7-3.83
				c-0.47-1.2-1.13-2.25-1.98-3.16c-0.86-0.9-1.87-1.61-3.04-2.14c-1.17-0.53-2.45-0.79-3.83-0.79c-1.41,0-2.7,0.26-3.85,0.77
				c-1.16,0.51-2.15,1.22-2.97,2.12c-0.83,0.9-1.47,1.95-1.94,3.13c-0.47,1.19-0.7,2.46-0.7,3.81v0.09c0,1.35,0.23,2.63,0.7,3.83
				c0.47,1.2,1.13,2.25,1.98,3.16c0.86,0.9,1.86,1.62,3.02,2.14c1.16,0.53,2.44,0.79,3.85,0.79c1.47,0,2.85-0.29,4.15-0.86
				l-5.14-4.37l4.42-4.96l5.18,4.69c0.57-1.26,0.86-2.7,0.86-4.33V122.26z"/>
			<path class="st4" d="M390.28,130.56c-0.65,1.77-1.57,3.25-2.77,4.44c-1.2,1.19-2.66,2.07-4.37,2.66
				c-1.71,0.59-3.62,0.88-5.72,0.88c-4.24,0-7.57-1.17-10.01-3.52c-2.43-2.34-3.65-5.84-3.65-10.5v-18.03l3.61,4.01l3.33-4.01v17.85
				c0,2.58,0.6,4.53,1.8,5.84c1.2,1.31,2.87,1.96,5,1.96c2.13,0,3.8-0.63,5-1.89c1.2-1.26,1.8-3.16,1.8-5.68v-12.22h6.94v11.95
				C391.25,126.69,390.92,128.78,390.28,130.56z"/>
			<path class="st4" d="M398.33,138.04v-31.55h23.76v6.18h-16.9v6.4h14.88v6.18h-14.88v6.63h17.13v6.18H398.33z"/>
		</g>
		<g>
			<path class="st4" d="M220.42,72.59c-0.75,0.6-1.57,1.11-2.46,1.53s-1.87,0.75-2.93,0.97c-1.06,0.22-2.25,0.33-3.57,0.33
				c-1.99,0-3.84-0.36-5.55-1.09c-1.71-0.72-3.18-1.71-4.43-2.97c-1.24-1.26-2.21-2.74-2.91-4.44c-0.7-1.71-1.05-3.53-1.05-5.47
				v-0.08c0-1.94,0.35-3.76,1.05-5.45c0.7-1.69,1.67-3.18,2.91-4.46c1.24-1.28,2.73-2.29,4.46-3.03c1.73-0.74,3.65-1.11,5.74-1.11
				c1.27,0,2.43,0.1,3.47,0.31c1.05,0.21,2,0.49,2.85,0.85c0.85,0.36,1.64,0.8,2.37,1.32c0.72,0.52,1.4,1.09,2.02,1.71l-3.8,4.39
				c-1.06-0.96-2.14-1.71-3.24-2.25c-1.1-0.54-2.34-0.82-3.71-0.82c-1.14,0-2.19,0.22-3.16,0.66c-0.97,0.44-1.8,1.05-2.5,1.82
				c-0.7,0.78-1.24,1.68-1.63,2.7c-0.39,1.02-0.58,2.12-0.58,3.28v0.08c0,1.16,0.19,2.26,0.58,3.3c0.39,1.04,0.92,1.94,1.61,2.72
				c0.69,0.78,1.51,1.39,2.48,1.84c0.97,0.45,2.04,0.68,3.2,0.68c1.55,0,2.87-0.28,3.94-0.85c1.07-0.57,2.14-1.35,3.2-2.33l3.8,3.84
				C221.89,71.33,221.17,72,220.42,72.59z"/>
			<path class="st4" d="M253.95,66.83c-0.72,1.7-1.73,3.18-3.01,4.46c-1.28,1.28-2.81,2.29-4.58,3.03c-1.77,0.74-3.71,1.11-5.8,1.11
				c-2.1,0-4.02-0.37-5.78-1.11s-3.28-1.73-4.56-2.99c-1.28-1.26-2.28-2.73-2.99-4.43c-0.71-1.69-1.07-3.51-1.07-5.45v-0.08
				c0-1.94,0.36-3.76,1.09-5.45c0.72-1.69,1.73-3.18,3.01-4.46c1.28-1.28,2.81-2.29,4.58-3.03c1.77-0.74,3.71-1.11,5.8-1.11
				c2.1,0,4.02,0.37,5.78,1.11c1.76,0.74,3.28,1.73,4.56,2.99c1.28,1.26,2.28,2.73,2.99,4.42c0.71,1.7,1.07,3.51,1.07,5.45v0.08
				C255.04,63.32,254.68,65.14,253.95,66.83z M248.79,61.38c0-1.16-0.2-2.26-0.6-3.3c-0.4-1.03-0.97-1.94-1.71-2.72
				c-0.74-0.78-1.61-1.39-2.62-1.84c-1.01-0.45-2.11-0.68-3.3-0.68c-1.22,0-2.32,0.22-3.32,0.66c-1,0.44-1.85,1.05-2.56,1.82
				c-0.71,0.78-1.27,1.68-1.67,2.7c-0.4,1.02-0.6,2.12-0.6,3.28v0.08c0,1.16,0.2,2.26,0.6,3.3c0.4,1.04,0.97,1.94,1.71,2.72
				c0.74,0.78,1.6,1.39,2.6,1.84c1,0.45,2.1,0.68,3.32,0.68c1.19,0,2.29-0.22,3.3-0.66c1.01-0.44,1.87-1.05,2.58-1.82
				c0.71-0.78,1.27-1.68,1.67-2.7c0.4-1.02,0.6-2.12,0.6-3.28V61.38z"/>
			<path class="st4" d="M279.42,74.96l-13.16-17.27v17.27h-5.9V47.79h5.51l12.73,16.73V47.79h5.9v27.17H279.42z"/>
			<path class="st4" d="M303.33,53.3v21.66h-5.98V53.3h-8.27v-5.51h22.51v5.51H303.33z"/>
			<path class="st4" d="M332.67,74.96l-5.82-8.69h-4.7v8.69h-5.98V47.79h12.42c3.23,0,5.75,0.79,7.55,2.37
				c1.8,1.58,2.7,3.78,2.7,6.6v0.08c0,2.2-0.54,3.99-1.61,5.38c-1.07,1.38-2.48,2.4-4.21,3.05l6.64,9.7H332.67z M332.79,57.07
				c0-1.29-0.41-2.26-1.24-2.91c-0.83-0.65-1.98-0.97-3.45-0.97h-5.94v7.8h6.06c1.47,0,2.61-0.35,3.4-1.05
				c0.79-0.7,1.18-1.63,1.18-2.79V57.07z"/>
			<path class="st4" d="M370.83,66.83c-0.72,1.7-1.73,3.18-3.01,4.46c-1.28,1.28-2.81,2.29-4.58,3.03c-1.77,0.74-3.71,1.11-5.8,1.11
				c-2.1,0-4.02-0.37-5.78-1.11c-1.76-0.74-3.28-1.73-4.56-2.99c-1.28-1.26-2.28-2.73-2.99-4.43c-0.71-1.69-1.07-3.51-1.07-5.45
				v-0.08c0-1.94,0.36-3.76,1.09-5.45c0.72-1.69,1.73-3.18,3.01-4.46s2.81-2.29,4.58-3.03c1.77-0.74,3.71-1.11,5.8-1.11
				c2.1,0,4.02,0.37,5.78,1.11c1.76,0.74,3.28,1.73,4.56,2.99c1.28,1.26,2.28,2.73,2.99,4.42c0.71,1.7,1.07,3.51,1.07,5.45v0.08
				C371.92,63.32,371.55,65.14,370.83,66.83z M365.67,61.38c0-1.16-0.2-2.26-0.6-3.3c-0.4-1.03-0.97-1.94-1.71-2.72
				c-0.74-0.78-1.61-1.39-2.62-1.84c-1.01-0.45-2.11-0.68-3.3-0.68c-1.22,0-2.32,0.22-3.32,0.66c-1,0.44-1.85,1.05-2.56,1.82
				c-0.71,0.78-1.27,1.68-1.67,2.7c-0.4,1.02-0.6,2.12-0.6,3.28v0.08c0,1.16,0.2,2.26,0.6,3.3c0.4,1.04,0.97,1.94,1.71,2.72
				c0.74,0.78,1.6,1.39,2.6,1.84c1,0.45,2.1,0.68,3.32,0.68c1.19,0,2.29-0.22,3.3-0.66c1.01-0.44,1.87-1.05,2.58-1.82
				c0.71-0.78,1.27-1.68,1.67-2.7c0.4-1.02,0.6-2.12,0.6-3.28V61.38z"/>
			<path class="st4" d="M377.23,74.96V47.79h5.98v21.78h13.55v5.4H377.23z"/>
			<path class="st4" d="M401.26,74.96V47.79h20.46v5.32h-14.56v5.51h12.81v5.32h-12.81v5.71h14.75v5.32H401.26z"/>
		</g>
		<g>
			<polygon class="st9" points="415.61,85.74 422.98,83.4 333.82,83.4 333.82,97.88 422.98,97.88 415.61,95.92 422.98,94.04
				414.35,91.19 422.98,89.32 			"/>
			<polygon class="st9" points="285.65,97.88 285.65,83.4 196.48,83.4 204.74,85.76 196.48,87.27 201.99,89.93 196.48,93.45
				202.7,95.44 196.48,97.88 			"/>
		</g>
		<g>
			<path class="st4" d="M308.72,93.97c-0.47,1.12-1.13,2.09-1.99,2.9c-0.86,0.82-1.88,1.46-3.07,1.93c-1.19,0.47-2.5,0.7-3.92,0.7
				h-6.33V81.28h6.33c1.42,0,2.73,0.23,3.92,0.69c1.19,0.46,2.21,1.1,3.07,1.91c0.86,0.82,1.52,1.78,1.99,2.89
				c0.47,1.11,0.7,2.31,0.7,3.59C309.42,91.65,309.19,92.85,308.72,93.97z M306.75,87.58c-0.36-0.88-0.86-1.65-1.51-2.3
				c-0.65-0.65-1.44-1.16-2.38-1.54c-0.94-0.37-1.98-0.56-3.12-0.56h-4.27V97.6h4.27c1.15,0,2.19-0.18,3.12-0.55
				c0.94-0.36,1.73-0.87,2.38-1.52c0.65-0.65,1.15-1.41,1.51-2.28c0.36-0.87,0.53-1.81,0.53-2.84
				C307.29,89.41,307.11,88.47,306.75,87.58z"/>
			<path class="st4" d="M326.94,83.16h-11.12v6.22h9.94v1.87h-9.94v6.38h11.25v1.87h-13.3V81.28h13.17V83.16z"/>
		</g>
	</g>
	<polygon class="st4" points="387.55,104.89 381.08,116.09 394.02,116.09 387.55,104.89 381.08,116.09 394.02,116.09 	"/>
</g>
</svg>
